<svg width="102.039" height="48" overflow="visible" style="display: block;" viewBox="0 0 102.039 48" fill="none" xmlns="http://www.w3.org/2000/svg">
<g id="logo-truncated">
<g id="Logo - Horizontal">
<path fill-rule="evenodd" clip-rule="evenodd" d="M18.0867 31C14.1922 31 12 28.2233 12 24.0622C12 19.9011 14.3476 17 18.2033 17C22.2534 17 24.2901 20.0022 24.2901 23.9456C24.2901 28.3011 21.7248 31 18.0867 31ZM18.1256 19.6056C16.4387 19.6056 15.296 21.0989 15.296 23.9767C15.296 27.0411 16.3454 28.3789 18.18 28.3789C19.8902 28.3789 20.9941 27.0022 20.9941 23.9922C20.9941 20.8733 19.9602 19.5978 18.1256 19.5978V19.6056Z" fill="var(--fill-0, #0E45E3)"/>
<path d="M32.5456 30.7511H34.3258L34.3336 30.7589C34.7689 30.7589 34.8933 30.5567 34.8933 30.1833V24.4978C34.8933 22.3822 33.9604 21.0445 31.8305 21.0445C30.6877 21.0445 29.6228 21.4256 28.7288 22.1256L28.6899 21.7133C28.6511 21.3789 28.4412 21.3011 28.1458 21.3011H26.5522C26.1169 21.3011 25.9847 21.5033 25.9847 21.8689V30.2533C25.9847 30.5956 26.2024 30.7745 26.5289 30.7745H28.3557C28.7443 30.7745 28.8998 30.5722 28.8998 30.2067V24.42C29.4362 23.9611 30.2369 23.6656 30.8743 23.6656C31.7683 23.6656 31.9782 24.2022 31.9782 25.0189V30.1756C31.9782 30.5411 32.1336 30.7511 32.5456 30.7511Z" fill="var(--fill-0, #0E45E3)"/>
<path fill-rule="evenodd" clip-rule="evenodd" d="M45.1311 26.7922H39.7051C39.9384 28.0133 41.0267 28.69 42.2005 28.69C43.0478 28.69 43.8718 28.4956 44.6414 28.1845C44.7191 28.1456 44.7969 28.1222 44.8746 28.1222C45.0534 28.1222 45.1467 28.2389 45.1855 28.3945C45.2087 28.4918 45.2505 28.6397 45.2978 28.8068C45.4092 29.2005 45.5509 29.7013 45.5509 29.9033C45.5509 30.1355 45.3953 30.2188 45.2229 30.311L45.1855 30.3311C44.1594 30.79 42.8068 30.9922 41.6796 30.9922C38.5935 30.9922 36.6423 29.0945 36.6423 25.9833C36.6423 22.8722 38.679 20.9978 41.6641 20.9978C42.9001 20.9978 43.9495 21.4567 44.6647 22.2345C45.6286 23.2611 45.8307 24.5989 45.8307 25.96V26.2089C45.8463 26.6911 45.6364 26.7845 45.1389 26.7845L45.1311 26.7922ZM41.5008 23.2533C40.5369 23.2533 39.8917 24.0311 39.7596 24.9411H43.0012C43.0012 24.1167 42.5114 23.2533 41.5086 23.2533H41.5008Z" fill="var(--fill-0, #0E45E3)"/>
<path d="M59.9943 30.7511H61.9299C62.2797 30.7511 62.4507 30.5722 62.4352 30.1911V30.1289L61.7977 17.7544C61.7822 17.4122 61.6423 17.2722 61.2536 17.2722H59.901C59.4734 17.2722 59.2635 17.4744 59.1081 17.8011L55.229 26.5667H55.1902L50.9069 17.8011C50.7359 17.4278 50.5571 17.2722 50.114 17.2722H48.7148C48.3494 17.2722 48.1395 17.4356 48.1162 17.8944L47.5954 30.1211V30.1833C47.5954 30.5956 47.813 30.7511 48.2561 30.7511H49.8497C50.2617 30.7511 50.5105 30.6967 50.5105 30.1522L50.6271 23.3078H50.6659L54.0241 30.3078C54.2262 30.6889 54.4361 30.7511 54.8015 30.7511H55.5167C55.7654 30.7511 56.0219 30.7122 56.1774 30.3233L59.1081 23.3H59.1469L59.3568 29.9578C59.3724 30.5022 59.489 30.7511 59.9943 30.7511Z" fill="var(--fill-0, #0E45E3)"/>
<path fill-rule="evenodd" clip-rule="evenodd" d="M73.668 30.7511H72.6419C71.4992 30.7511 71.0405 30.4244 70.784 29.8567H70.7451C70.2243 30.4556 68.9805 31 68.0244 31C65.2337 31 63.9355 28.7833 63.9355 26.2089C63.9355 22.7789 66.0654 21.0289 68.1954 21.0289C69.2759 21.0289 70.1621 21.5344 70.5586 22.11L70.6208 21.6822C70.6441 21.4722 70.8151 21.2933 71.0639 21.2933H72.8052C73.0772 21.2933 73.2638 21.4489 73.2638 21.7522V28.4411C73.2638 28.6356 73.3415 28.7678 73.5592 28.7678H73.7147C73.9867 28.7678 74.1267 28.8611 74.1267 29.1567V30.2844C74.1267 30.58 73.9323 30.7355 73.6602 30.7355L73.668 30.7511ZM68.794 23.4167C69.3727 23.4167 70.005 23.7615 70.3565 24.0709V27.8189C70.1233 28.1067 69.4314 28.6356 68.7318 28.6356C67.2626 28.6356 66.9516 27.2044 66.9516 25.9989C66.9516 24.1944 67.8378 23.4167 68.794 23.4167Z" fill="var(--fill-0, #0E45E3)"/>
<path d="M75.6892 18.7189C75.6892 19.6445 76.5209 20.1733 77.2594 20.1733V20.1656C77.9901 20.1656 78.8141 19.6289 78.8141 18.6956C78.8141 17.77 78.0523 17.2256 77.2594 17.2256C76.4665 17.2256 75.6892 17.7933 75.6892 18.7189Z" fill="var(--fill-0, #0E45E3)"/>
<path d="M76.4276 30.7433H78.1689V30.7511C78.5576 30.7511 78.7364 30.5722 78.7364 30.1833V21.8067C78.7364 21.3945 78.5343 21.3011 78.1689 21.3011H76.4276C76.0778 21.3011 75.8291 21.4178 75.8291 21.8067V30.1756C75.8291 30.6111 76.0156 30.7433 76.4276 30.7433Z" fill="var(--fill-0, #0E45E3)"/>
<path d="M89.4718 30.7511H87.6916C87.2796 30.7511 87.1241 30.5411 87.1241 30.1756V25.0189C87.1241 24.2022 86.9142 23.6656 86.0203 23.6656C85.3828 23.6656 84.5822 23.9611 84.0458 24.42V30.2067C84.0458 30.5722 83.8903 30.7745 83.5016 30.7745H81.6748C81.3483 30.7745 81.1307 30.5956 81.1307 30.2533V21.8689C81.1307 21.5033 81.2628 21.3011 81.6982 21.3011H83.2917C83.5871 21.3011 83.797 21.3789 83.8359 21.7133L83.8748 22.1256C84.7687 21.4256 85.8337 21.0445 86.9764 21.0445C89.1064 21.0445 90.0392 22.3822 90.0392 24.4978V30.1833C90.0392 30.5567 89.9071 30.7589 89.4795 30.7589L89.4718 30.7511Z" fill="var(--fill-0, #0E45E3)"/>
</g>
</g>
</svg>
