<svg width="175" height="48" overflow="visible" style="display: block;" viewBox="0 0 175 48" fill="none" xmlns="http://www.w3.org/2000/svg">
<g id="logo-horizontal">
<g id="Logo - Horizontal">
<path fill-rule="evenodd" clip-rule="evenodd" d="M6.95627 32C2.50532 32 0 28.8267 0 24.0711C0 19.3156 2.683 16 7.08953 16C11.7182 16 14.0458 19.4311 14.0458 23.9378C14.0458 28.9156 11.114 32 6.95627 32ZM7.00069 18.9778C5.07283 18.9778 3.76687 20.6844 3.76687 23.9733C3.76687 27.4756 4.96622 29.0044 7.06288 29.0044C9.01738 29.0044 10.2789 27.4311 10.2789 23.9911C10.2789 20.4267 9.09734 18.9689 7.00069 18.9689V18.9778Z" fill="#0E45E3"/>
<path d="M169.038 31.7155H170.051L170.06 31.7244C170.309 31.7244 170.424 31.5822 170.424 31.2978V17.3155C170.424 17.04 170.3 16.96 170.113 16.96H170.015L168.976 17.1022C168.736 17.1467 168.665 17.2178 168.665 17.5111V31.3067C168.665 31.5911 168.789 31.7155 169.038 31.7155Z" fill="#0E45E3"/>
<path d="M103.749 18.5867C103.731 18.88 103.536 18.9244 103.189 18.9244H97.7342V23.4756H102.612C102.905 23.4756 103.029 23.6 103.029 23.8489V24.5956C103.029 24.8889 102.931 24.9689 102.638 24.9689H97.7431V31.2889C97.7431 31.6444 97.6454 31.7244 97.3344 31.7244H96.2506C95.913 31.7244 95.8152 31.6622 95.8152 31.2622V17.8222C95.8152 17.5289 95.913 17.4133 96.2061 17.4133H103.518C103.74 17.4133 103.855 17.5111 103.855 17.7244V17.7867L103.758 18.5956L103.749 18.5867Z" fill="#0E45E3"/>
<path d="M106.183 20.2311C105.623 20.2311 105.126 19.84 105.126 19.2355C105.126 18.6311 105.623 18.24 106.183 18.24C106.743 18.24 107.267 18.6311 107.267 19.2355C107.267 19.84 106.734 20.2311 106.183 20.2311Z" fill="#0E45E3"/>
<path d="M106.689 31.7155H105.739C105.472 31.7155 105.321 31.5733 105.321 31.28V22.0978C105.321 21.8044 105.463 21.68 105.739 21.68H106.689C106.956 21.68 107.08 21.8044 107.08 22.0978V31.28C107.08 31.5733 106.956 31.7155 106.689 31.7155Z" fill="#0E45E3"/>
<path d="M117.102 31.7156H118.097C118.39 31.7156 118.479 31.5733 118.479 31.28V25.1733C118.479 22.9156 117.572 21.4578 115.183 21.4578C113.974 21.4578 112.722 21.8933 111.771 22.7022L111.753 22.0533C111.753 21.7778 111.611 21.68 111.362 21.68H110.447C110.163 21.68 110.056 21.8045 110.056 22.0978V31.3156C110.056 31.5822 110.199 31.7245 110.447 31.7245H111.425C111.691 31.7245 111.816 31.5822 111.816 31.2889V24.1422C112.544 23.4756 113.726 22.9333 114.676 22.9333C116.338 22.9333 116.711 23.9911 116.711 25.4667V31.28C116.711 31.5733 116.835 31.7156 117.102 31.7156Z" fill="#0E45E3"/>
<path fill-rule="evenodd" clip-rule="evenodd" d="M130.081 31.7156H129.22C128.304 31.7156 127.869 31.0133 127.869 30.1867H127.825C127.345 31.1022 125.977 31.9289 124.706 31.9289C121.846 31.9289 120.575 29.5022 120.575 26.88C120.575 23.4133 122.628 21.4578 125 21.4578C126.039 21.4578 127.158 21.8933 127.78 22.72L127.807 22.0356C127.807 21.7867 127.976 21.68 128.198 21.68H129.14C129.388 21.68 129.513 21.8045 129.513 22.0711V29.3422C129.513 29.8222 129.53 30.1511 129.61 30.2845C129.69 30.4267 129.797 30.4711 129.966 30.4711H130.108C130.295 30.4711 130.401 30.5156 130.401 30.7378V31.44C130.401 31.6622 130.295 31.7156 130.081 31.7156ZM127.736 24.3645C127.229 23.4222 126.217 22.8711 125.222 22.8711C123.623 22.8711 122.414 24.2845 122.414 26.7467C122.414 29.0311 123.472 30.4445 124.964 30.4445C126.297 30.4445 127.354 29.3867 127.727 28.3467V24.3556L127.736 24.3645Z" fill="#0E45E3"/>
<path d="M139.463 31.7156H140.449C140.742 31.7156 140.84 31.5733 140.84 31.28V25.1733C140.84 22.9156 139.934 21.4578 137.544 21.4578C136.345 21.4578 135.092 21.8933 134.141 22.7022L134.115 22.0533C134.115 21.7778 133.973 21.68 133.724 21.68H132.809C132.516 21.68 132.418 21.8045 132.418 22.0978V31.3156C132.418 31.5822 132.56 31.7245 132.809 31.7245H133.786C134.052 31.7245 134.177 31.5822 134.177 31.2889V24.1422C134.905 23.4756 136.087 22.9333 137.038 22.9333C138.699 22.9333 139.072 23.9911 139.072 25.4667V31.28C139.072 31.5733 139.196 31.7156 139.463 31.7156Z" fill="#0E45E3"/>
<path d="M150.621 31.3244C149.733 31.7333 148.773 31.9289 147.814 31.9289C144.554 31.9289 142.972 29.8133 142.972 26.72C142.972 23.6267 144.811 21.4667 147.929 21.4667C148.827 21.4667 149.866 21.6889 150.586 22.0711C150.728 22.1422 150.799 22.2133 150.799 22.3378C150.799 22.3909 150.786 22.4246 150.766 22.4776L150.755 22.5067L150.586 23.1733C150.541 23.3155 150.488 23.4133 150.364 23.4133C150.319 23.4133 150.239 23.3955 150.177 23.3511C149.529 23.0578 148.827 22.8355 148.018 22.8355C146.046 22.8355 144.802 24.3111 144.802 26.64C144.802 28.7555 145.717 30.5867 147.929 30.5867C148.827 30.5867 149.591 30.3733 150.257 30.0889C150.266 30.0862 150.276 30.0834 150.285 30.0804L150.312 30.0715C150.355 30.0575 150.395 30.0444 150.426 30.0444C150.524 30.0444 150.595 30.1067 150.639 30.2578L150.826 30.8444C150.852 30.9244 150.87 31.0133 150.87 31.0667C150.87 31.1733 150.817 31.2355 150.63 31.3155L150.621 31.3244Z" fill="#0E45E3"/>
<path d="M152.576 19.2355C152.576 19.84 153.073 20.2311 153.633 20.2311C154.175 20.2311 154.717 19.84 154.717 19.2355C154.717 18.6311 154.193 18.24 153.633 18.24C153.073 18.24 152.576 18.6311 152.576 19.2355Z" fill="#0E45E3"/>
<path d="M153.18 31.7155H154.131C154.406 31.7155 154.521 31.5733 154.521 31.28V22.0978C154.521 21.8044 154.397 21.68 154.131 21.68H153.18C152.913 21.68 152.771 21.8044 152.771 22.0978V31.28C152.771 31.5733 152.913 31.7155 153.18 31.7155Z" fill="#0E45E3"/>
<path fill-rule="evenodd" clip-rule="evenodd" d="M166.355 31.7156H165.493C164.578 31.7156 164.143 31.0133 164.143 30.1867H164.099C163.619 31.1022 162.251 31.9289 160.98 31.9289C158.12 31.9289 156.849 29.5022 156.849 26.88C156.849 23.4133 158.901 21.4578 161.273 21.4578C162.313 21.4578 163.432 21.8933 164.054 22.72L164.081 22.0356C164.081 21.7867 164.25 21.68 164.472 21.68H165.413C165.662 21.68 165.787 21.8045 165.787 22.0711V29.3422C165.787 29.8222 165.813 30.1511 165.893 30.2845C165.973 30.4267 166.08 30.4711 166.249 30.4711H166.391C166.577 30.4711 166.684 30.5156 166.684 30.7378V31.44C166.666 31.6622 166.568 31.7156 166.355 31.7156ZM164.01 24.3645C163.512 23.4222 162.491 22.8711 161.496 22.8711C159.896 22.8711 158.688 24.2845 158.688 26.7467C158.688 29.0311 159.745 30.4445 161.238 30.4445C162.571 30.4445 163.628 29.3867 164.001 28.3467V24.3556L164.01 24.3645Z" fill="#0E45E3"/>
<path d="M23.4807 31.7156H25.5152L25.5241 31.7245C26.0216 31.7245 26.1637 31.4933 26.1637 31.0667V24.5689C26.1637 22.1511 25.0976 20.6222 22.6634 20.6222C21.3574 20.6222 20.1403 21.0578 19.1186 21.8578L19.0742 21.3867C19.0298 21.0045 18.7899 20.9156 18.4523 20.9156H16.6311C16.1336 20.9156 15.9825 21.1467 15.9825 21.5645V31.1467C15.9825 31.5378 16.2313 31.7422 16.6044 31.7422H18.6922C19.1364 31.7422 19.3141 31.5111 19.3141 31.0933V24.48C19.9271 23.9556 20.8421 23.6178 21.5706 23.6178C22.5923 23.6178 22.8322 24.2311 22.8322 25.1645V31.0578C22.8322 31.4756 23.0099 31.7156 23.4807 31.7156Z" fill="#0E45E3"/>
<path fill-rule="evenodd" clip-rule="evenodd" d="M37.8641 27.1911H31.663C31.9295 28.5867 33.1733 29.36 34.5148 29.36C35.4832 29.36 36.4249 29.1378 37.3044 28.7822C37.3933 28.7378 37.4821 28.7111 37.571 28.7111C37.7753 28.7111 37.8819 28.8445 37.9263 29.0222C37.9528 29.1335 38.0006 29.3025 38.0546 29.4935C38.1819 29.9434 38.3439 30.5158 38.3439 30.7467C38.3439 31.012 38.166 31.1072 37.969 31.2126L37.9263 31.2356C36.7536 31.76 35.2078 31.9911 33.9196 31.9911C30.3926 31.9911 28.1627 29.8222 28.1627 26.2667C28.1627 22.7111 30.4903 20.5689 33.9018 20.5689C35.3144 20.5689 36.5137 21.0933 37.3311 21.9822C38.4327 23.1556 38.6637 24.6845 38.6637 26.24V26.5245C38.6815 27.0756 38.4416 27.1822 37.873 27.1822L37.8641 27.1911ZM33.7152 23.1467C32.6136 23.1467 31.8762 24.0356 31.7252 25.0756H35.4299C35.4299 24.1333 34.8702 23.1467 33.7241 23.1467H33.7152Z" fill="#0E45E3"/>
<path d="M54.8506 31.7156H57.0627C57.4625 31.7156 57.6579 31.5111 57.6402 31.0756V31.0044L56.9117 16.8622C56.8939 16.4711 56.734 16.3111 56.2898 16.3111H54.744C54.2553 16.3111 54.0155 16.5422 53.8378 16.9156L49.4046 26.9333H49.3602L44.465 16.9156C44.2696 16.4889 44.0652 16.3111 43.5588 16.3111H41.9597C41.5422 16.3111 41.3023 16.4978 41.2756 17.0222L40.6804 30.9956V31.0667C40.6804 31.5378 40.9291 31.7156 41.4355 31.7156H43.2568C43.7276 31.7156 44.0119 31.6533 44.0119 31.0311L44.1452 23.2089H44.1896L48.0276 31.2089C48.2585 31.6444 48.4984 31.7156 48.916 31.7156H49.7333C50.0176 31.7156 50.3108 31.6711 50.4885 31.2267L53.8378 23.2H53.8822L54.1221 30.8089C54.1398 31.4311 54.2731 31.7156 54.8506 31.7156Z" fill="#0E45E3"/>
<path fill-rule="evenodd" clip-rule="evenodd" d="M70.4777 31.7155H69.305C67.9991 31.7155 67.4749 31.3422 67.1817 30.6933H67.1373C66.5421 31.3778 65.1206 32 64.0279 32C60.8385 32 59.3548 29.4667 59.3548 26.5244C59.3548 22.6044 61.7891 20.6044 64.2233 20.6044C65.4582 20.6044 66.471 21.1822 66.9241 21.84L66.9952 21.3511C67.0218 21.1111 67.2173 20.9067 67.5015 20.9067H69.4916C69.8025 20.9067 70.0157 21.0844 70.0157 21.4311V29.0755C70.0157 29.2978 70.1046 29.4489 70.3533 29.4489H70.531C70.842 29.4489 71.0019 29.5555 71.0019 29.8933V31.1822C71.0019 31.52 70.7798 31.6978 70.4688 31.6978L70.4777 31.7155ZM64.9074 23.3333C65.5688 23.3333 66.2915 23.7275 66.6931 24.081V28.3644C66.4266 28.6933 65.6359 29.2978 64.8363 29.2978C63.1572 29.2978 62.8018 27.6622 62.8018 26.2844C62.8018 24.2222 63.8146 23.3333 64.9074 23.3333Z" fill="#0E45E3"/>
<path d="M72.7876 17.9645C72.7876 19.0222 73.7382 19.6267 74.5822 19.6267V19.6178C75.4173 19.6178 76.359 19.0045 76.359 17.9378C76.359 16.88 75.4884 16.2578 74.5822 16.2578C73.676 16.2578 72.7876 16.9067 72.7876 17.9645Z" fill="#0E45E3"/>
<path d="M73.6316 31.7067H75.6216V31.7156C76.0658 31.7156 76.2702 31.5111 76.2702 31.0667V21.4933C76.2702 21.0222 76.0392 20.9156 75.6216 20.9156H73.6316C73.2318 20.9156 72.9475 21.0489 72.9475 21.4933V31.0578C72.9475 31.5556 73.1607 31.7067 73.6316 31.7067Z" fill="#0E45E3"/>
<path d="M88.5391 31.7156H86.5047C86.0338 31.7156 85.8561 31.4756 85.8561 31.0578V25.1645C85.8561 24.2311 85.6163 23.6178 84.5946 23.6178C83.8661 23.6178 82.951 23.9556 82.338 24.48V31.0933C82.338 31.5111 82.1603 31.7422 81.7161 31.7422H79.6284C79.2552 31.7422 79.0065 31.5378 79.0065 31.1467V21.5645C79.0065 21.1467 79.1575 20.9156 79.655 20.9156H81.4763C81.8139 20.9156 82.0537 21.0045 82.0981 21.3867L82.1426 21.8578C83.1642 21.0578 84.3814 20.6222 85.6873 20.6222C88.1216 20.6222 89.1877 22.1511 89.1877 24.5689V31.0667C89.1877 31.4933 89.0366 31.7245 88.548 31.7245L88.5391 31.7156Z" fill="#0E45E3"/>
<path fill-rule="evenodd" clip-rule="evenodd" d="M173.702 31.0311H173.862L173.853 31.0222C173.889 31.0222 173.889 30.9956 173.889 30.9956C173.889 30.9689 173.871 30.9422 173.871 30.9422L173.534 30.3911C173.693 30.3289 173.818 30.1867 173.818 29.9822C173.818 29.6445 173.578 29.5467 173.276 29.5467H172.965C172.912 29.5467 172.912 29.6089 172.912 29.6089V30.9778C172.912 31.0133 172.956 31.0311 172.956 31.0311H173.098C173.143 31.0311 173.143 30.9778 173.143 30.9778V30.4533H173.32L173.631 30.9867C173.658 31.0133 173.702 31.0311 173.702 31.0311ZM173.151 29.7333H173.267C173.471 29.7333 173.596 29.7956 173.596 29.9911C173.596 30.1689 173.471 30.2578 173.294 30.2578H173.151V29.7333Z" fill="#0E45E3"/>
<path fill-rule="evenodd" clip-rule="evenodd" d="M171.846 30.2845C171.846 31.12 172.512 31.7867 173.356 31.7867C174.191 31.7867 174.866 31.1111 174.866 30.2845C174.866 29.4489 174.209 28.7911 173.356 28.7911C172.503 28.7911 171.846 29.4489 171.846 30.2845ZM172.121 30.2933C172.121 29.6089 172.663 29.0578 173.356 29.0578C174.049 29.0578 174.591 29.6 174.591 30.2933C174.591 30.9778 174.058 31.5289 173.356 31.5289C172.654 31.5289 172.121 30.9778 172.121 30.2933Z" fill="#0E45E3"/>
</g>
</g>
</svg>
